<?xml version="1.0" standalone="no"?>
<!DOCTYPE svg PUBLIC "-//W3C//DTD SVG 20010904//EN"
 "http://www.w3.org/TR/2001/REC-SVG-20010904/DTD/svg10.dtd">
<svg version="1.0" xmlns="http://www.w3.org/2000/svg"
 width="64.000000pt" height="64.000000pt" viewBox="0 0 64.000000 64.000000"
 preserveAspectRatio="xMidYMid meet">
<metadata>
Created by potrace 1.10, written by Peter Selinger 2001-2011
</metadata>
<g transform="translate(0.000000,64.000000) scale(0.100000,-0.100000)"
fill="#000000" stroke="none">
<path d="M286 529 c-63 -18 -95 -82 -73 -146 34 -103 188 -100 216 3 25 89
-55 169 -143 143z m91 -51 c51 -48 15 -138 -56 -138 -47 0 -81 32 -81 79 0 72
84 109 137 59z"/>
<path d="M280 260 c-48 -9 -78 -26 -122 -68 -36 -35 -49 -62 -28 -62 5 0 29
20 54 44 50 50 87 62 172 53 42 -4 54 -3 54 9 0 20 -76 35 -130 24z"/>
<path d="M439 181 c-38 -39 -40 -97 -5 -138 35 -40 107 -40 142 0 55 64 11
167 -71 167 -27 0 -44 -8 -66 -29z m81 -40 c0 -12 7 -18 18 -17 9 0 17 -6 17
-14 0 -8 -8 -14 -17 -14 -11 1 -18 -5 -18 -17 0 -10 -7 -19 -15 -19 -8 0 -15
9 -15 19 0 12 -7 18 -17 17 -10 0 -18 6 -18 14 0 8 8 14 18 14 10 -1 17 5 17
17 0 11 7 19 15 19 8 0 15 -8 15 -19z"/>
</g>
</svg>
