<?xml version="1.0" standalone="no"?>
<!DOCTYPE svg PUBLIC "-//W3C//DTD SVG 20010904//EN"
 "http://www.w3.org/TR/2001/REC-SVG-20010904/DTD/svg10.dtd">
<svg version="1.0" xmlns="http://www.w3.org/2000/svg"
 width="24.000000pt" height="24.000000pt" viewBox="0 0 24.000000 24.000000"
 preserveAspectRatio="xMidYMid meet">
<metadata>
Created by potrace 1.10, written by Peter Selinger 2001-2011
</metadata>
<g transform="translate(0.000000,24.000000) scale(0.100000,-0.100000)"
fill="#000000" stroke="none">
<path d="M30 201 c0 -6 4 -13 10 -16 6 -4 1 -18 -11 -34 -23 -32 -19 -50 21
-86 16 -14 36 -20 74 -20 28 0 57 -4 64 -9 7 -4 16 -5 20 -2 6 7 -157 176
-170 176 -5 0 -8 -4 -8 -9z m50 -75 c0 -28 18 -46 47 -46 13 0 23 -4 23 -10 0
-22 -60 -9 -92 19 -32 29 -32 29 -14 50 22 24 36 19 36 -13z"/>
<path d="M95 190 c3 -5 17 -10 30 -10 14 0 39 -13 57 -29 27 -24 30 -31 20
-44 -8 -10 -9 -17 -3 -21 6 -4 15 3 21 14 13 24 2 49 -36 79 -27 21 -101 30
-89 11z"/>
</g>
</svg>
