<?xml version="1.0" standalone="no"?>
<!DOCTYPE svg PUBLIC "-//W3C//DTD SVG 20010904//EN"
 "http://www.w3.org/TR/2001/REC-SVG-20010904/DTD/svg10.dtd">
<svg version="1.0" xmlns="http://www.w3.org/2000/svg"
 width="48.000000pt" height="48.000000pt" viewBox="0 0 48.000000 48.000000"
 preserveAspectRatio="xMidYMid meet">
<metadata>
Created by potrace 1.10, written by Peter Selinger 2001-2011
</metadata>
<g transform="translate(0.000000,48.000000) scale(0.100000,-0.100000)"
fill="#000000" stroke="none">
<path d="M148 433 c-21 -26 -27 -48 -17 -64 6 -11 0 -15 -29 -19 -36 -5 -37
-6 -40 -54 -2 -27 2 -54 7 -59 6 -6 11 -44 11 -84 0 -108 8 -113 160 -113 152
0 160 5 160 113 0 40 5 78 11 84 5 5 9 32 7 59 -3 49 -3 49 -41 52 -32 3 -36
6 -28 21 11 20 -5 58 -31 75 -13 8 -26 7 -49 -1 -21 -8 -38 -9 -50 -3 -27 15
-54 12 -71 -7z m72 -32 c18 -35 12 -51 -20 -51 -34 0 -53 25 -39 52 13 24 46
23 59 -1z m99 2 c15 -27 -5 -53 -39 -53 -32 0 -38 16 -20 51 13 24 46 25 59 2z
m-89 -113 l0 -30 -70 0 -70 0 0 30 0 30 70 0 70 0 0 -30z m160 0 l0 -30 -70 0
-70 0 0 30 0 30 70 0 70 0 0 -30z m-165 -140 l0 -80 -45 0 c-26 0 -51 5 -58
12 -7 7 -12 40 -12 80 l0 68 58 0 57 0 0 -80z m145 12 c0 -40 -5 -73 -12 -80
-7 -7 -32 -12 -57 -12 l-46 0 0 80 0 80 58 0 57 0 0 -68z"/>
</g>
</svg>
