<?xml version="1.0" standalone="no"?>
<!DOCTYPE svg PUBLIC "-//W3C//DTD SVG 20010904//EN"
 "http://www.w3.org/TR/2001/REC-SVG-20010904/DTD/svg10.dtd">
<svg version="1.0" xmlns="http://www.w3.org/2000/svg"
 width="24.000000pt" height="24.000000pt" viewBox="0 0 24.000000 24.000000"
 preserveAspectRatio="xMidYMid meet">

<g transform="translate(0.000000,24.000000) scale(0.100000,-0.100000)"
fill="#000000" stroke="none">
<path d="M55 192 c-16 -10 -37 -31 -44 -46 -13 -24 -13 -30 1 -54 18 -31 72
-62 108 -62 36 0 90 31 108 62 14 24 14 30 1 54 -31 60 -115 82 -174 46z m148
-32 c15 -16 27 -35 27 -40 0 -5 -13 -24 -29 -42 -26 -29 -35 -33 -81 -33 -46
0 -55 4 -81 33 -16 18 -29 36 -29 41 0 15 42 62 64 72 40 17 99 3 129 -31z"/>
<path d="M90 145 c-26 -32 13 -81 48 -59 22 14 27 41 12 59 -16 19 -44 19 -60
0z m55 -25 c0 -18 -6 -26 -23 -28 -24 -4 -38 18 -28 44 3 9 15 14 28 12 17 -2
23 -10 23 -28z"/>
</g>
</svg>
